<?xml version="1.0" encoding="UTF-8" standalone="no"?>
<!DOCTYPE svg PUBLIC "-//W3C//DTD SVG 1.1//EN"
 "http://www.w3.org/Graphics/SVG/1.1/DTD/svg11.dtd">
<!-- Generated by graphviz version 2.39.20160214.2135 (20160214.2135)
 -->
<!-- Title: g Pages: 1 -->
<svg width="1139pt" height="535pt"
 viewBox="0.00 0.00 1138.77 535.42" xmlns="http://www.w3.org/2000/svg" xmlns:xlink="http://www.w3.org/1999/xlink">
<g id="graph0" class="graph" transform="scale(1 1) rotate(0) translate(4 531.417)">
<title>g</title>
<polygon fill="white" stroke="transparent" points="-4,4 -4,-531.417 1134.77,-531.417 1134.77,4 -4,4"/>
<g id="clust1" class="cluster">
<title>cluster_git</title>
<polygon fill="none" stroke="black" points="8,-72.7144 8,-254.714 197.555,-254.714 197.555,-72.7144 8,-72.7144"/>
<text text-anchor="middle" x="102.777" y="-239.514" font-family="Times,serif" font-size="14.00">git</text>
</g>
<g id="clust2" class="cluster">
<title>cluster_jenkins</title>
<polygon fill="none" stroke="black" points="217.555,-124.714 217.555,-306.714 970.471,-306.714 970.471,-124.714 217.555,-124.714"/>
<text text-anchor="middle" x="594.013" y="-291.514" font-family="Times,serif" font-size="14.00">jenkins</text>
</g>
<g id="clust3" class="cluster">
<title>cluster_maven</title>
<polygon fill="none" stroke="black" points="798.8,-314.714 798.8,-496.714 931.097,-496.714 931.097,-314.714 798.8,-314.714"/>
<text text-anchor="middle" x="864.949" y="-481.514" font-family="Times,serif" font-size="14.00">maven</text>
</g>
<g id="clust4" class="cluster">
<title>cluster_site</title>
<polygon fill="none" stroke="black" points="990.471,-178.714 990.471,-360.714 1122.77,-360.714 1122.77,-178.714 990.471,-178.714"/>
<text text-anchor="middle" x="1056.62" y="-345.514" font-family="Times,serif" font-size="14.00">site</text>
</g>
<!-- git_streams_master -->
<g id="node1" class="node">
<title>git_streams_master</title>
<g id="a_node1"><a xlink:href="https://git-wip-us.apache.org/repos/asf?p=incubator-streams-master.git;a=summary" xlink:title="incubator&#45;streams&#45;master">
<polygon fill="none" stroke="black" points="181.78,-224.714 23.7744,-224.714 23.7744,-188.714 181.78,-188.714 181.78,-224.714"/>
<text text-anchor="middle" x="102.777" y="-202.514" font-family="Times,serif" font-size="14.00">incubator&#45;streams&#45;master</text>
</a>
</g>
</g>
<!-- jenkins_streams_master -->
<g id="node4" class="node">
<title>jenkins_streams_master</title>
<g id="a_node4"><a xlink:href="https://builds.apache.org/job/streams-master" xlink:title="streams&#45;master">
<ellipse fill="none" stroke="black" cx="289.193" cy="-258.714" rx="63.7769" ry="18"/>
<text text-anchor="middle" x="289.193" y="-254.514" font-family="Times,serif" font-size="14.00">streams&#45;master</text>
</a>
</g>
</g>
<!-- git_streams_master&#45;&gt;jenkins_streams_master -->
<g id="edge1" class="edge">
<title>git_streams_master&#45;&gt;jenkins_streams_master</title>
<path fill="none" stroke="black" stroke-dasharray="5,2" d="M167.453,-224.756C189.15,-230.808 213.13,-237.497 234.029,-243.327"/>
<polygon fill="black" stroke="black" points="233.132,-246.71 243.705,-246.026 235.013,-239.967 233.132,-246.71"/>
</g>
<!-- git_streams_project -->
<g id="node2" class="node">
<title>git_streams_project</title>
<g id="a_node2"><a xlink:href="https://git-wip-us.apache.org/repos/asf?p=incubator-streams.git;a=summary" xlink:title="incubator&#45;streams">
<polygon fill="none" stroke="black" points="160.801,-170.714 44.7539,-170.714 44.7539,-134.714 160.801,-134.714 160.801,-170.714"/>
<text text-anchor="middle" x="102.777" y="-148.514" font-family="Times,serif" font-size="14.00">incubator&#45;streams</text>
</a>
</g>
</g>
<!-- jenkins_streams_trunk -->
<g id="node5" class="node">
<title>jenkins_streams_trunk</title>
<g id="a_node5"><a xlink:href="https://builds.apache.org/job/streams-project" xlink:title="streams&#45;project">
<ellipse fill="none" stroke="black" cx="453.45" cy="-239.714" rx="64.7372" ry="18"/>
<text text-anchor="middle" x="453.45" y="-235.514" font-family="Times,serif" font-size="14.00">streams&#45;project</text>
</a>
</g>
</g>
<!-- git_streams_project&#45;&gt;jenkins_streams_trunk -->
<g id="edge2" class="edge">
<title>git_streams_project&#45;&gt;jenkins_streams_trunk</title>
<path fill="none" stroke="black" stroke-dasharray="5,2" d="M160.845,-167.811C173.075,-171.393 185.823,-175.43 197.555,-179.714 206.711,-183.059 208.296,-185.668 217.555,-188.714 273.477,-207.116 339.074,-220.681 386.879,-229.175"/>
<polygon fill="black" stroke="black" points="386.347,-232.635 396.801,-230.911 387.553,-225.74 386.347,-232.635"/>
</g>
<!-- jenkins_streams_trunk_verify -->
<g id="node6" class="node">
<title>jenkins_streams_trunk_verify</title>
<g id="a_node6"><a xlink:href="https://builds.apache.org/job/streams-project-verify" xlink:title="streams&#45;project&#45;verify">
<ellipse fill="none" stroke="black" cx="642.747" cy="-204.714" rx="88.8583" ry="18"/>
<text text-anchor="middle" x="642.747" y="-200.514" font-family="Times,serif" font-size="14.00">streams&#45;project&#45;verify</text>
</a>
</g>
</g>
<!-- git_streams_project&#45;&gt;jenkins_streams_trunk_verify -->
<g id="edge4" class="edge">
<title>git_streams_project&#45;&gt;jenkins_streams_trunk_verify</title>
<path fill="none" stroke="black" stroke-dasharray="5,2" d="M160.823,-146.27C241.99,-138.955 393.446,-131.506 518.068,-160.714 535.296,-164.752 537.561,-171.343 554.068,-177.714 562.558,-180.991 571.624,-184.138 580.597,-187.052"/>
<polygon fill="black" stroke="black" points="579.676,-190.432 590.267,-190.118 581.792,-183.759 579.676,-190.432"/>
</g>
<!-- jenkins_streams_project_site -->
<g id="node7" class="node">
<title>jenkins_streams_project_site</title>
<g id="a_node7"><a xlink:href="https://builds.apache.org/job/streams-project-site" xlink:title="streams&#45;project&#45;site">
<ellipse fill="none" stroke="black" cx="642.747" cy="-258.714" rx="79.6885" ry="18"/>
<text text-anchor="middle" x="642.747" y="-254.514" font-family="Times,serif" font-size="14.00">streams&#45;project&#45;site</text>
</a>
</g>
</g>
<!-- git_streams_project&#45;&gt;jenkins_streams_project_site -->
<g id="edge3" class="edge">
<title>git_streams_project&#45;&gt;jenkins_streams_project_site</title>
<path fill="none" stroke="black" stroke-dasharray="5,2" d="M160.951,-154.863C242.59,-159.269 394.95,-172.606 518.068,-212.714 535.27,-218.318 537.339,-224.826 554.068,-231.714 562.794,-235.307 572.174,-238.67 581.452,-241.721"/>
<polygon fill="black" stroke="black" points="580.46,-245.078 591.051,-244.783 582.588,-238.409 580.46,-245.078"/>
</g>
<!-- git_streams_examples -->
<g id="node3" class="node">
<title>git_streams_examples</title>
<g id="a_node3"><a xlink:href="https://git-wip-us.apache.org/repos/asf?p=incubator-streams-examples.git;a=summary" xlink:title="incubator&#45;streams&#45;examples">
<polygon fill="none" stroke="black" points="189.333,-116.714 16.2221,-116.714 16.2221,-80.7144 189.333,-80.7144 189.333,-116.714"/>
<text text-anchor="middle" x="102.777" y="-94.5144" font-family="Times,serif" font-size="14.00">incubator&#45;streams&#45;examples</text>
</a>
</g>
</g>
<!-- jenkins_streams_examples -->
<g id="node8" class="node">
<title>jenkins_streams_examples</title>
<g id="a_node8"><a xlink:href="https://builds.apache.org/job/streams-examples" xlink:title="streams&#45;examples">
<ellipse fill="none" stroke="black" cx="642.747" cy="-150.714" rx="73.4239" ry="18"/>
<text text-anchor="middle" x="642.747" y="-146.514" font-family="Times,serif" font-size="14.00">streams&#45;examples</text>
</a>
</g>
</g>
<!-- git_streams_examples&#45;&gt;jenkins_streams_examples -->
<g id="edge5" class="edge">
<title>git_streams_examples&#45;&gt;jenkins_streams_examples</title>
<path fill="none" stroke="black" stroke-dasharray="5,2" d="M189.533,-107.069C293.004,-117.034 464.459,-133.545 564.178,-143.148"/>
<polygon fill="black" stroke="black" points="563.903,-146.638 574.193,-144.112 564.574,-139.67 563.903,-146.638"/>
</g>
<!-- jenkins_streams_examples_verify -->
<g id="node9" class="node">
<title>jenkins_streams_examples_verify</title>
<g id="a_node9"><a xlink:href="https://builds.apache.org/job/streams-examples-verify" xlink:title="streams&#45;examples&#45;verify">
<ellipse fill="none" stroke="black" cx="864.949" cy="-204.714" rx="97.5448" ry="18"/>
<text text-anchor="middle" x="864.949" y="-200.514" font-family="Times,serif" font-size="14.00">streams&#45;examples&#45;verify</text>
</a>
</g>
</g>
<!-- git_streams_examples&#45;&gt;jenkins_streams_examples_verify -->
<g id="edge6" class="edge">
<title>git_streams_examples&#45;&gt;jenkins_streams_examples_verify</title>
<path fill="none" stroke="black" stroke-dasharray="5,2" d="M179.402,-80.6995C304.163,-55.736 554.975,-24.125 731.426,-123.714 756.546,-137.892 744.059,-160.804 767.426,-177.714 773.02,-181.763 779.195,-185.204 785.641,-188.13"/>
<polygon fill="black" stroke="black" points="784.662,-191.511 795.243,-192.058 787.312,-185.032 784.662,-191.511"/>
</g>
<!-- jenkins_streams_examples_site -->
<g id="node10" class="node">
<title>jenkins_streams_examples_site</title>
<g id="a_node10"><a xlink:href="https://builds.apache.org/job/streams-examples-site" xlink:title="streams&#45;examples&#45;site">
<ellipse fill="none" stroke="black" cx="864.949" cy="-150.714" rx="88.8756" ry="18"/>
<text text-anchor="middle" x="864.949" y="-146.514" font-family="Times,serif" font-size="14.00">streams&#45;examples&#45;site</text>
</a>
</g>
</g>
<!-- git_streams_examples&#45;&gt;jenkins_streams_examples_site -->
<g id="edge7" class="edge">
<title>git_streams_examples&#45;&gt;jenkins_streams_examples_site</title>
<path fill="none" stroke="black" stroke-dasharray="5,2" d="M133.2,-80.6036C155.648,-68.3391 187.404,-53.2257 217.555,-46.7144 440.795,1.49682 515.427,27.4808 731.426,-46.7144 776.506,-62.199 818.068,-99.819 842.47,-125.304"/>
<polygon fill="black" stroke="black" points="840.086,-127.879 849.477,-132.785 845.196,-123.094 840.086,-127.879"/>
</g>
<!-- jenkins_streams_master&#45;&gt;jenkins_streams_trunk -->
<g id="edge14" class="edge">
<title>jenkins_streams_master&#45;&gt;jenkins_streams_trunk</title>
<path fill="none" stroke="black" stroke-dasharray="1,5" d="M348.493,-251.855C359.865,-250.54 371.871,-249.151 383.541,-247.801"/>
<polygon fill="black" stroke="black" points="384.153,-251.254 393.685,-246.628 383.349,-244.3 384.153,-251.254"/>
</g>
<!-- maven_streams_master -->
<g id="node11" class="node">
<title>maven_streams_master</title>
<g id="a_node11"><a xlink:href="https://repository.apache.org/content/repositories/snapshots/org/apache/streams/streams-master/" xlink:title="streams&#45;master">
<polygon fill="none" stroke="black" points="915.194,-466.714 814.703,-466.714 814.703,-430.714 915.194,-430.714 915.194,-466.714"/>
<text text-anchor="middle" x="864.949" y="-444.514" font-family="Times,serif" font-size="14.00">streams&#45;master</text>
</a>
</g>
</g>
<!-- jenkins_streams_master&#45;&gt;maven_streams_master -->
<g id="edge8" class="edge">
<title>jenkins_streams_master&#45;&gt;maven_streams_master</title>
<path fill="none" stroke="black" d="M328.616,-273.025C410.087,-302.405 603.144,-371.023 767.426,-421.714 779.48,-425.434 792.444,-429.191 804.86,-432.672"/>
<polygon fill="black" stroke="black" points="804.1,-436.093 814.672,-435.398 805.974,-429.349 804.1,-436.093"/>
</g>
<!-- site_streams_master -->
<g id="node14" class="node">
<title>site_streams_master</title>
<g id="a_node14"><a xlink:href="http://streams.incubator.apache.org/site/latest/streams-master/" xlink:title="streams&#45;master">
<polygon fill="none" stroke="black" points="1106.86,-330.714 1006.37,-330.714 1006.37,-294.714 1106.86,-294.714 1106.86,-330.714"/>
<text text-anchor="middle" x="1056.62" y="-308.514" font-family="Times,serif" font-size="14.00">streams&#45;master</text>
</a>
</g>
</g>
<!-- jenkins_streams_master&#45;&gt;site_streams_master -->
<g id="edge11" class="edge">
<title>jenkins_streams_master&#45;&gt;site_streams_master</title>
<path fill="none" stroke="black" d="M310.107,-275.765C329.703,-291.262 360.188,-314.166 388.831,-330.714 548.542,-422.986 587.068,-462.08 767.426,-500.714 855.666,-519.617 894.523,-549.454 970.471,-500.714 1025.9,-465.141 1046.13,-384.008 1053.14,-340.88"/>
<polygon fill="black" stroke="black" points="1056.63,-341.194 1054.65,-330.786 1049.71,-340.157 1056.63,-341.194"/>
</g>
<!-- jenkins_streams_trunk&#45;&gt;jenkins_streams_trunk_verify -->
<g id="edge15" class="edge">
<title>jenkins_streams_trunk&#45;&gt;jenkins_streams_trunk_verify</title>
<path fill="none" stroke="black" stroke-dasharray="1,5" d="M507.441,-229.732C525.952,-226.309 547.023,-222.413 566.935,-218.732"/>
<polygon fill="black" stroke="black" points="567.714,-222.147 576.911,-216.887 566.441,-215.264 567.714,-222.147"/>
</g>
<!-- jenkins_streams_trunk&#45;&gt;jenkins_streams_project_site -->
<g id="edge16" class="edge">
<title>jenkins_streams_trunk&#45;&gt;jenkins_streams_project_site</title>
<path fill="none" stroke="black" stroke-dasharray="1,5" d="M514.387,-245.831C528.701,-247.267 544.198,-248.823 559.309,-250.34"/>
<polygon fill="black" stroke="black" points="559.389,-253.865 569.689,-251.381 560.089,-246.9 559.389,-253.865"/>
</g>
<!-- jenkins_streams_trunk&#45;&gt;jenkins_streams_examples -->
<g id="edge17" class="edge">
<title>jenkins_streams_trunk&#45;&gt;jenkins_streams_examples</title>
<path fill="none" stroke="black" stroke-dasharray="1,5" d="M476.885,-222.865C496.688,-209.229 526.202,-190.289 554.068,-177.714 562.887,-173.735 572.454,-170.136 581.932,-166.957"/>
<polygon fill="black" stroke="black" points="583.295,-170.195 591.741,-163.799 581.15,-163.532 583.295,-170.195"/>
</g>
<!-- maven_streams_project -->
<g id="node12" class="node">
<title>maven_streams_project</title>
<g id="a_node12"><a xlink:href="https://repository.apache.org/content/repositories/snapshots/org/apache/streams/streams-project/" xlink:title="streams&#45;project">
<polygon fill="none" stroke="black" points="916.246,-412.714 813.651,-412.714 813.651,-376.714 916.246,-376.714 916.246,-412.714"/>
<text text-anchor="middle" x="864.949" y="-390.514" font-family="Times,serif" font-size="14.00">streams&#45;project</text>
</a>
</g>
</g>
<!-- jenkins_streams_trunk&#45;&gt;maven_streams_project -->
<g id="edge9" class="edge">
<title>jenkins_streams_trunk&#45;&gt;maven_streams_project</title>
<path fill="none" stroke="black" d="M486.304,-255.357C505.855,-264.509 531.226,-276.114 554.068,-285.714 647.721,-325.075 670.948,-335.902 767.426,-367.714 779.027,-371.54 791.52,-375.279 803.565,-378.696"/>
<polygon fill="black" stroke="black" points="802.976,-382.165 813.549,-381.486 804.86,-375.424 802.976,-382.165"/>
</g>
<!-- site_streams_project -->
<g id="node15" class="node">
<title>site_streams_project</title>
<g id="a_node15"><a xlink:href="http://streams.incubator.apache.org/site/latest/streams-project/" xlink:title="streams&#45;project">
<polygon fill="none" stroke="black" points="1107.92,-276.714 1005.32,-276.714 1005.32,-240.714 1107.92,-240.714 1107.92,-276.714"/>
<text text-anchor="middle" x="1056.62" y="-254.514" font-family="Times,serif" font-size="14.00">streams&#45;project</text>
</a>
</g>
</g>
<!-- jenkins_streams_project_site&#45;&gt;site_streams_project -->
<g id="edge12" class="edge">
<title>jenkins_streams_project_site&#45;&gt;site_streams_project</title>
<path fill="none" stroke="black" d="M723.037,-258.714C802.575,-258.714 922.673,-258.714 994.985,-258.714"/>
<polygon fill="black" stroke="black" points="995.297,-262.214 1005.3,-258.714 995.297,-255.214 995.297,-262.214"/>
</g>
<!-- jenkins_streams_examples&#45;&gt;jenkins_streams_examples_verify -->
<g id="edge18" class="edge">
<title>jenkins_streams_examples&#45;&gt;jenkins_streams_examples_verify</title>
<path fill="none" stroke="black" stroke-dasharray="1,5" d="M695.124,-163.443C725.24,-170.762 763.434,-180.044 795.971,-187.951"/>
<polygon fill="black" stroke="black" points="795.328,-191.397 805.872,-190.357 796.981,-184.595 795.328,-191.397"/>
</g>
<!-- jenkins_streams_examples&#45;&gt;jenkins_streams_examples_site -->
<g id="edge19" class="edge">
<title>jenkins_streams_examples&#45;&gt;jenkins_streams_examples_site</title>
<path fill="none" stroke="black" stroke-dasharray="1,5" d="M716.428,-150.714C732.226,-150.714 749.165,-150.714 765.748,-150.714"/>
<polygon fill="black" stroke="black" points="766.013,-154.214 776.013,-150.714 766.013,-147.214 766.013,-154.214"/>
</g>
<!-- maven_streams_examples -->
<g id="node13" class="node">
<title>maven_streams_examples</title>
<g id="a_node13"><a xlink:href="https://repository.apache.org/content/repositories/snapshots/org/apache/streams/streams-examples/" xlink:title="streams&#45;examples">
<polygon fill="none" stroke="black" points="923.246,-358.714 806.651,-358.714 806.651,-322.714 923.246,-322.714 923.246,-358.714"/>
<text text-anchor="middle" x="864.949" y="-336.514" font-family="Times,serif" font-size="14.00">streams&#45;examples</text>
</a>
</g>
</g>
<!-- jenkins_streams_examples&#45;&gt;maven_streams_examples -->
<g id="edge10" class="edge">
<title>jenkins_streams_examples&#45;&gt;maven_streams_examples</title>
<path fill="none" stroke="black" d="M704.566,-160.652C714.559,-164.599 724.034,-170.087 731.426,-177.714 774.047,-221.687 724.869,-266.681 767.426,-310.714 775.519,-319.088 785.887,-325.14 796.828,-329.509"/>
<polygon fill="black" stroke="black" points="795.952,-332.911 806.547,-332.932 798.277,-326.309 795.952,-332.911"/>
</g>
<!-- site_streams_examples -->
<g id="node16" class="node">
<title>site_streams_examples</title>
<g id="a_node16"><a xlink:href="http://streams.incubator.apache.org/site/latest/streams-examples/" xlink:title="streams&#45;examples">
<polygon fill="none" stroke="black" points="1114.92,-222.714 998.322,-222.714 998.322,-186.714 1114.92,-186.714 1114.92,-222.714"/>
<text text-anchor="middle" x="1056.62" y="-200.514" font-family="Times,serif" font-size="14.00">streams&#45;examples</text>
</a>
</g>
</g>
<!-- jenkins_streams_examples_site&#45;&gt;site_streams_examples -->
<g id="edge13" class="edge">
<title>jenkins_streams_examples_site&#45;&gt;site_streams_examples</title>
<path fill="none" stroke="black" d="M921.504,-164.595C937.391,-168.654 954.647,-173.214 970.471,-177.714 977.055,-179.587 983.899,-181.606 990.724,-183.668"/>
<polygon fill="black" stroke="black" points="990.09,-187.134 1000.68,-186.707 992.135,-180.439 990.09,-187.134"/>
</g>
</g>
</svg>
